<?xml version="1.0" encoding="UTF-8" standalone="no"?>
<svg
   xmlns:dc="http://purl.org/dc/elements/1.1/"
   xmlns:cc="http://creativecommons.org/ns#"
   xmlns:rdf="http://www.w3.org/1999/02/22-rdf-syntax-ns#"
   xmlns:svg="http://www.w3.org/2000/svg"
   xmlns="http://www.w3.org/2000/svg"
   xmlns:sodipodi="http://sodipodi.sourceforge.net/DTD/sodipodi-0.dtd"
   xmlns:inkscape="http://www.inkscape.org/namespaces/inkscape"
   inkscape:version="1.0 (4035a4fb49, 2020-05-01)"
   sodipodi:docname="github_icon.svg"
   id="svg4"
   version="1.1"
   viewBox="0 0 40 40"
   height="40"
   width="40">
  <metadata
     id="metadata10">
    <rdf:RDF>
      <cc:Work
         rdf:about="">
        <dc:format>image/svg+xml</dc:format>
        <dc:type
           rdf:resource="http://purl.org/dc/dcmitype/StillImage" />
        <dc:title></dc:title>
      </cc:Work>
    </rdf:RDF>
  </metadata>
  <defs
     id="defs8" />
  <sodipodi:namedview
     inkscape:current-layer="svg4"
     inkscape:window-maximized="1"
     inkscape:window-y="-9"
     inkscape:window-x="-9"
     inkscape:cy="32.277014"
     inkscape:cx="50.792647"
     inkscape:zoom="7.65625"
     showgrid="false"
     id="namedview6"
     inkscape:window-height="1001"
     inkscape:window-width="1920"
     inkscape:pageshadow="2"
     inkscape:pageopacity="0"
     guidetolerance="10"
     gridtolerance="10"
     objecttolerance="10"
     borderopacity="1"
     bordercolor="#666666"
     pagecolor="#ffffff" />
  <path
     style="stroke-width:1"
     id="path2"
     d="M 20,0 C 8.9550002,0 0,8.9550002 0,20 0,31.045001 8.9550002,40.000001 20,40.000001 31.045001,40.000001 40.000001,31.045001 40.000001,20 40.000001,8.9550002 31.045001,0 20,0 Z m 3.696667,31.026667 c -0.59,0.115 -0.78,-0.248333 -0.78,-0.56 v -3.201666 c 0,-1.088334 -0.381667,-1.798334 -0.801667,-2.16 2.6,-0.288334 5.330001,-1.275001 5.330001,-5.756667 0,-1.275 -0.455,-2.315 -1.201667,-3.131667 0.12,-0.295 0.52,-1.481667 -0.115,-3.088333 0,0 -0.978333,-0.313334 -3.205,1.195 -0.935,-0.256667 -1.931667,-0.385 -2.923334,-0.39 -0.991666,0.005 -1.988333,0.133333 -2.921666,0.391666 C 14.85,12.816667 13.87,13.13 13.87,13.13 c -0.631666,1.606667 -0.233333,2.793334 -0.111666,3.086667 -0.746667,0.816667 -1.203334,1.856667 -1.203334,3.131667 0,4.47 2.723334,5.47 5.315,5.765 -0.333333,0.291667 -0.635,0.805 -0.74,1.56 -0.666666,0.298333 -2.355,0.813333 -3.395,-0.97 0,0 -0.616666,-1.12 -1.788333,-1.203334 0,0 -1.138333,-0.015 -0.08,0.710001 0,0 0.766667,0.358333 1.295,1.706666 0,0 0.675,2.083334 3.921667,1.376667 v 2.171667 c 0,0.308333 -0.188334,0.67 -0.77,0.561666 -4.636667,-1.541666 -7.9800005,-5.915 -7.9800005,-11.068333 0,-6.445 5.2250005,-11.6666672 11.6666665,-11.6666672 6.441667,0 11.666667,5.2216672 11.666667,11.6666672 0,5.151667 -3.338333,9.525 -7.97,11.068333 z" />
  <path
     id="path835"
     d="M 16.018431,30.83114 C 15.002162,30.47288 13.468095,29.572043 12.532388,28.784061 8.2872178,25.209098 7.2046036,19.089953 9.9498783,14.187218 10.704177,12.840129 12.87413,10.670177 14.221219,9.9158776 c 1.936159,-1.0841477 4.643589,-1.7217969 6.527016,-1.5372314 6.065499,0.5943854 10.498964,5.1216198 10.804539,11.0330618 0.241175,4.665615 -2.512129,9.171821 -6.775917,11.089823 -1.782966,0.802041 -1.72283,0.870019 -1.804618,-2.039842 -0.05863,-2.085789 -0.09447,-2.372791 -0.350392,-2.805812 l -0.285086,-0.48236 0.742229,-0.153137 c 1.95603,-0.403565 3.22172,-1.298643 3.865794,-2.733831 0.533614,-1.18905 0.710087,-2.837543 0.426699,-3.985915 -0.120898,-0.489907 -0.380787,-1.160332 -0.577534,-1.489833 -0.318419,-0.533273 -0.352813,-0.702962 -0.313054,-1.544496 0.02457,-0.519971 -0.02767,-1.246928 -0.116077,-1.615459 l -0.160745,-0.670057 -0.603673,0.07851 c -0.332019,0.04318 -1.082174,0.318791 -1.66701,0.612461 -1.04688,0.525681 -1.07505,0.531782 -1.819907,0.394087 -0.975413,-0.180314 -3.18851,-0.179596 -4.167352,0.0014 -0.752029,0.13902 -0.780262,0.13307 -1.819906,-0.383594 -0.580815,-0.288642 -1.331133,-0.563964 -1.667374,-0.611825 l -0.611348,-0.08702 -0.204979,0.690239 c -0.234302,0.788979 -0.25958,1.433761 -0.08067,2.057597 0.108867,0.379598 0.07625,0.499802 -0.262512,0.96745 -1.308342,1.806115 -0.902967,5.574129 0.756428,7.031096 0.626765,0.550308 1.608161,1.014754 2.633494,1.246304 l 0.890608,0.201124 -0.299262,0.736316 c -0.331923,0.81668 -0.486595,0.919193 -1.407003,0.932534 -0.83416,0.01209 -1.449313,-0.296331 -1.905628,-0.955434 -0.709832,-1.025284 -1.573097,-1.556126 -2.30353,-1.416495 -0.459512,0.08784 -0.391044,0.329543 0.239783,0.846458 0.329033,0.269617 0.769463,0.844634 1.077551,1.406829 0.330797,0.603635 0.689104,1.062067 0.981258,1.255462 0.568299,0.37619 1.639081,0.590877 2.415976,0.484391 l 0.585055,-0.08019 v 1.188668 c 0,1.386006 -0.119969,1.545097 -0.945645,1.254026 z"
     style="fill:#ffffff;fill-rule:evenodd;stroke:none;stroke-width:1.51181;stroke-linecap:round;stroke-linejoin:round" />
</svg>
