<?xml version="1.0" encoding="UTF-8" standalone="no"?>
<svg
   xmlns:dc="http://purl.org/dc/elements/1.1/"
   xmlns:cc="http://creativecommons.org/ns#"
   xmlns:rdf="http://www.w3.org/1999/02/22-rdf-syntax-ns#"
   xmlns:svg="http://www.w3.org/2000/svg"
   xmlns="http://www.w3.org/2000/svg"
   xmlns:sodipodi="http://sodipodi.sourceforge.net/DTD/sodipodi-0.dtd"
   xmlns:inkscape="http://www.inkscape.org/namespaces/inkscape"
   sodipodi:docname="page_logo.svg"
   inkscape:version="1.0 (4035a4fb49, 2020-05-01)"
   id="svg8"
   version="1.1"
   viewBox="0 0 136.26041 84.402085"
   height="319"
   width="515">
  <defs
     id="defs2" />
  <sodipodi:namedview
     units="px"
     inkscape:window-maximized="1"
     inkscape:window-y="-9"
     inkscape:window-x="-9"
     inkscape:window-height="1001"
     inkscape:window-width="1920"
     inkscape:snap-global="false"
     showgrid="false"
     inkscape:document-rotation="0"
     inkscape:current-layer="g881"
     inkscape:document-units="mm"
     inkscape:cy="198.63004"
     inkscape:cx="190.74795"
     inkscape:zoom="1.4"
     inkscape:pageshadow="2"
     inkscape:pageopacity="0.0"
     borderopacity="1.0"
     bordercolor="#666666"
     pagecolor="#ffffff"
     id="base" />
  <metadata
     id="metadata5">
    <rdf:RDF>
      <cc:Work
         rdf:about="">
        <dc:format>image/svg+xml</dc:format>
        <dc:type
           rdf:resource="http://purl.org/dc/dcmitype/StillImage" />
        <dc:title></dc:title>
      </cc:Work>
    </rdf:RDF>
  </metadata>
  <g
     id="layer1"
     inkscape:groupmode="layer"
     inkscape:label="Layer 1">
    <g
       style="stroke-width:0.670843"
       transform="matrix(1.4853484,0,0,1.4959929,-43.538946,-62.966372)"
       id="g881">
      <path
         inkscape:export-ydpi="96"
         inkscape:export-xdpi="96"
         style="fill:#5599ff;stroke:#000000;stroke-width:4.02506;stroke-linecap:round;stroke-linejoin:miter;stroke-miterlimit:4;stroke-dasharray:none;stroke-opacity:1"
         d="m 67.521191,82.626291 c 0,0 -11.469326,9.677349 -26.269047,1.607748 C 26.452425,76.164447 33.085813,53.445097 33.085813,53.445097 l 2.446547,-7.388903 c 0,0 7.642727,2.195434 9.510972,6.348053 0,0 12.301928,-5.240575 18.595458,-1.182196 0,0 4.463831,-5.753972 8.237279,-6.551506 0,0 10.942274,22.56329 1.07356,31.988166 -9.868754,9.424895 -5.428438,5.96758 -5.428438,5.96758 z"
         id="path863"
         sodipodi:nodetypes="csccccssc" />
      <path
         inkscape:export-ydpi="96"
         inkscape:export-xdpi="96"
         style="fill:#80ffe6;stroke:#000000;stroke-width:4.02506;stroke-linecap:round;stroke-linejoin:miter;stroke-miterlimit:4;stroke-dasharray:none;stroke-opacity:1;paint-order:markers fill stroke"
         d="m 84.9074,66.430136 c 0,0 -3.718098,3.520621 -3.122242,14.548994 0.595856,11.028353 -5.052344,13.547966 -8.498633,13.419519 -3.446249,-0.128556 -10.14623,-2.607927 -9.427005,-12.44378 0.719265,-9.835872 5.514116,-16.575339 5.514116,-16.575339 0,0 3.443086,-5.71781 14.051108,-6.137217 10.608002,-0.419407 17.217566,6.173319 17.217566,6.173319 0,0 7.96456,11.417324 12.51044,11.643911 4.54593,0.226577 4.64224,-0.884702 5.64555,0.324748 1.00337,1.209459 -3.92452,11.274412 -13.35628,13.20991 -9.431771,1.935468 -9.885013,5.120397 -9.885013,5.120397 l -18.574671,0.53703"
         id="path861" />
      <path
         style="fill:#000000;stroke:#000000;stroke-width:0.335423;stroke-linecap:round;stroke-linejoin:miter;stroke-miterlimit:4;stroke-dasharray:none;stroke-opacity:1"
         d="m 93.725969,66.879859 -3.668685,16.54663 8.848013,-14.970755 z"
         id="path865" />
      <path
         style="opacity:1;fill:#000000;fill-rule:evenodd;stroke-width:1.34169;stroke-linecap:round;stroke-linejoin:round;stroke-miterlimit:4;stroke-dasharray:none;paint-order:markers fill stroke"
         id="path867"
         sodipodi:type="arc"
         sodipodi:cx="88.607101"
         sodipodi:cy="86.64537"
         sodipodi:rx="2.184104"
         sodipodi:ry="2.1963546"
         sodipodi:start="0"
         sodipodi:end="6.2595186"
         sodipodi:open="true"
         sodipodi:arc-type="arc"
         d="m 90.791205,86.64537 a 2.184104,2.1963546 0 0 1 -2.171181,2.196317 2.184104,2.1963546 0 0 1 -2.196874,-2.170327 2.184104,2.1963546 0 0 1 2.145186,-2.221998 2.184104,2.1963546 0 0 1 2.222258,2.144033" />
      <path
         style="fill:#000000;stroke:#000000;stroke-width:0.335423;stroke-linecap:butt;stroke-linejoin:miter;stroke-miterlimit:4;stroke-dasharray:none;stroke-opacity:1"
         d="m 45.548721,62.506389 c 0,0 -1.273717,-6.731965 6.977794,-8.178506 8.251499,-1.44655 9.525215,5.062878 9.525215,5.062878 0,0 1.384478,5.062917 -6.590109,6.78763 l 1.827511,10.682127 -4.430348,-12.073044 c 0,0 8.140757,-2.114162 6.811646,-5.786143 -1.329107,-3.672001 -6.14708,-2.837457 -6.14708,-2.837457 0,0 -6.867038,-0.500728 -6.036334,6.175613 z"
         id="path871" />
      <path
         d="m 60.577773,79.873245 a 2.184104,2.1963546 0 0 1 -2.171181,2.196316 2.184104,2.1963546 0 0 1 -2.196874,-2.170326 2.184104,2.1963546 0 0 1 2.145185,-2.221998 2.184104,2.1963546 0 0 1 2.222258,2.144033"
         sodipodi:arc-type="arc"
         sodipodi:open="true"
         sodipodi:end="6.2595186"
         sodipodi:start="0"
         sodipodi:ry="2.1963546"
         sodipodi:rx="2.184104"
         sodipodi:cy="79.873245"
         sodipodi:cx="58.393669"
         sodipodi:type="arc"
         id="path873"
         style="opacity:1;fill:#000000;fill-rule:evenodd;stroke-width:1.34169;stroke-linecap:round;stroke-linejoin:round;stroke-miterlimit:4;stroke-dasharray:none;paint-order:markers fill stroke" />
      <path
         d="m 120.87244,77.994423 a 3.3452098,3.3639731 0 0 1 -3.32542,3.363914 3.3452098,3.3639731 0 0 1 -3.36477,-3.324108 3.3452098,3.3639731 0 0 1 3.2856,-3.403249 3.3452098,3.3639731 0 0 1 3.40365,3.283836"
         sodipodi:arc-type="arc"
         sodipodi:open="true"
         sodipodi:end="6.2595186"
         sodipodi:start="0"
         sodipodi:ry="3.3639731"
         sodipodi:rx="3.3452098"
         sodipodi:cy="77.994423"
         sodipodi:cx="117.52723"
         sodipodi:type="arc"
         id="path857"
         style="opacity:1;fill:#000000;fill-rule:evenodd;stroke-width:1.3417;stroke-linecap:round;stroke-linejoin:round;stroke-miterlimit:4;stroke-dasharray:none;paint-order:markers fill stroke" />
    </g>
  </g>
</svg>
