<?xml version="1.0" encoding="UTF-8" standalone="no"?>
<svg
   xmlns:dc="http://purl.org/dc/elements/1.1/"
   xmlns:cc="http://creativecommons.org/ns#"
   xmlns:rdf="http://www.w3.org/1999/02/22-rdf-syntax-ns#"
   xmlns:svg="http://www.w3.org/2000/svg"
   xmlns="http://www.w3.org/2000/svg"
   xmlns:sodipodi="http://sodipodi.sourceforge.net/DTD/sodipodi-0.dtd"
   xmlns:inkscape="http://www.inkscape.org/namespaces/inkscape"
   inkscape:version="1.0 (4035a4fb49, 2020-05-01)"
   sodipodi:docname="facebook_icon.svg"
   id="svg4"
   version="1.1"
   viewBox="0 0 40 40"
   height="40"
   width="40">
  <metadata
     id="metadata10">
    <rdf:RDF>
      <cc:Work
         rdf:about="">
        <dc:format>image/svg+xml</dc:format>
        <dc:type
           rdf:resource="http://purl.org/dc/dcmitype/StillImage" />
        <dc:title></dc:title>
      </cc:Work>
    </rdf:RDF>
  </metadata>
  <defs
     id="defs8" />
  <sodipodi:namedview
     inkscape:current-layer="svg4"
     inkscape:window-maximized="1"
     inkscape:window-y="-9"
     inkscape:window-x="-9"
     inkscape:cy="34.183971"
     inkscape:cx="13.175221"
     inkscape:zoom="8.0000004"
     showgrid="false"
     id="namedview6"
     inkscape:window-height="1001"
     inkscape:window-width="1920"
     inkscape:pageshadow="2"
     inkscape:pageopacity="0"
     guidetolerance="10"
     gridtolerance="10"
     objecttolerance="10"
     borderopacity="1"
     bordercolor="#666666"
     pagecolor="#ffffff"
     inkscape:document-rotation="0" />
  <path
     id="path835"
     d="M 19.106579,40.033752 C 14.201393,39.835091 9.4545384,37.744864 5.9270984,34.230304 2.668103,30.983207 0.6944977,26.922115 0.13039266,22.302408 0.05921011,21.719463 0.03395143,21.115702 0.03449335,20.010114 0.03530298,18.358368 0.10243534,17.63418 0.3930257,16.14245 1.7603692,9.1232679 6.9281179,3.275432 13.757894,1.0187348 15.79775,0.34472472 17.795509,0.0300284 20.034411,0.0300284 c 3.433968,0 6.561098,0.78831205 9.560104,2.4099867 0.726602,0.392901 2.115737,1.3051891 2.774618,1.8221776 3.808116,2.9880239 6.425246,7.2731253 7.334695,12.0093003 0.257041,1.338604 0.330657,2.177034 0.330657,3.765911 0,1.588877 -0.07361,2.427306 -0.330657,3.76591 -1.463048,7.619181 -7.201805,13.711262 -14.73007,15.636971 -1.899268,0.485828 -3.793645,0.677444 -5.867179,0.593467 z m 2.619763,-14.129169 v -5.839889 h 1.500907 c 0.825499,0 1.501302,-0.01842 1.501783,-0.04093 4.91e-4,-0.02251 0.07398,-0.728623 0.163336,-1.569131 0.08936,-0.840507 0.162633,-1.583456 0.16285,-1.650996 l 3.95e-4,-0.122801 h -1.668892 -1.668905 l 0.01791,-1.323527 c 0.02726,-2.015035 -0.02353,-1.964219 1.996375,-1.996783 l 1.323527,-0.02134 V 10.83476 8.3303343 l -2.087625,3.274e-4 c -2.33514,3.821e-4 -2.794161,0.042184 -3.677444,0.335076 -1.2297,0.4077602 -2.088961,1.2981786 -2.41748,2.5051393 -0.181904,0.668296 -0.221609,1.28505 -0.22208,3.449625 l -4.47e-4,2.060329 H 14.98591 13.321269 v 1.691932 1.691931 h 1.664641 1.664642 v 5.839889 5.839891 h 2.537897 2.537895 z"
     style="fill:#4267b2;fill-opacity:1;fill-rule:evenodd;stroke-width:1.134;stroke-linecap:round;stroke-linejoin:round" />
  <path
     id="path830"
     d="m 16.701118,25.853394 v -5.84375 h -1.6875 -1.6875 v -1.65625 -1.65625 h 1.681945 1.681945 l 0.02629,-2.453125 c 0.02412,-2.250671 0.03712,-2.49255 0.157546,-2.930845 0.394184,-1.4346414 1.308984,-2.313994 2.858527,-2.7477611 0.468834,-0.1312419 0.64901,-0.1415582 2.890625,-0.1655082 l 2.390625,-0.025542 v 2.4661253 2.466126 l -1.296875,0.02869 c -2.016409,0.04461 -1.966962,-0.0048 -2.00418,2.002462 l -0.0252,1.359375 h 1.66313 1.66313 v 0.149834 c 0,0.08241 -0.07031,0.819339 -0.15625,1.63762 -0.08594,0.818282 -0.15625,1.496168 -0.15625,1.506415 0,0.01025 -0.675,0.01863 -1.5,0.01863 h -1.5 v 5.84375 5.843749 h -2.5 -2.5 z"
     style="fill:#ffffff;fill-rule:evenodd;stroke-width:1.51181;stroke-linecap:round;stroke-linejoin:round" />
</svg>
