<?xml version="1.0" encoding="UTF-8" standalone="no"?>
<svg
   xmlns:dc="http://purl.org/dc/elements/1.1/"
   xmlns:cc="http://creativecommons.org/ns#"
   xmlns:rdf="http://www.w3.org/1999/02/22-rdf-syntax-ns#"
   xmlns:svg="http://www.w3.org/2000/svg"
   xmlns="http://www.w3.org/2000/svg"
   xmlns:sodipodi="http://sodipodi.sourceforge.net/DTD/sodipodi-0.dtd"
   xmlns:inkscape="http://www.inkscape.org/namespaces/inkscape"
   width="40"
   height="40"
   viewBox="0 0 40 40"
   version="1.1"
   id="svg4"
   sodipodi:docname="twitter_icon.svg"
   inkscape:version="1.0 (4035a4fb49, 2020-05-01)">
  <metadata
     id="metadata10">
    <rdf:RDF>
      <cc:Work
         rdf:about="">
        <dc:format>image/svg+xml</dc:format>
        <dc:type
           rdf:resource="http://purl.org/dc/dcmitype/StillImage" />
        <dc:title></dc:title>
      </cc:Work>
    </rdf:RDF>
  </metadata>
  <defs
     id="defs8" />
  <sodipodi:namedview
     inkscape:document-rotation="0"
     pagecolor="#ffffff"
     bordercolor="#666666"
     borderopacity="1"
     objecttolerance="10"
     gridtolerance="10"
     guidetolerance="10"
     inkscape:pageopacity="0"
     inkscape:pageshadow="2"
     inkscape:window-width="1920"
     inkscape:window-height="1001"
     id="namedview6"
     showgrid="false"
     inkscape:zoom="7.65625"
     inkscape:cx="-10.224782"
     inkscape:cy="18.554572"
     inkscape:window-x="-9"
     inkscape:window-y="-9"
     inkscape:window-maximized="1"
     inkscape:current-layer="svg4" />
  <path
     style="opacity:1;fill:#00acee;fill-opacity:1;fill-rule:evenodd;stroke:none;stroke-width:1.134;stroke-linecap:round;stroke-linejoin:round;stroke-miterlimit:4;stroke-dasharray:none"
     d="M 19.10659,40.010913 C 14.201386,39.812366 9.4545131,37.723332 5.9270598,34.210778 2.6744652,30.971922 0.720282,26.961561 0.13139913,22.316967 0.05918473,21.747401 0.03457537,21.16511 0.03457537,20.025981 c 0,-1.680245 0.06521552,-2.388596 0.35839089,-3.89273 C 1.7603149,9.1180765 6.9280831,3.2735791 13.757885,1.0181703 c 2.039864,-0.67362525 4.03763,-0.9881419 6.276541,-0.9881419 3.43398,0 6.561122,0.78786199 9.560139,2.4086108 0.726605,0.3926766 2.115746,1.304444 2.774629,1.8211374 3.808131,2.9863179 6.42527,7.2689724 7.334722,12.0024444 0.257042,1.33784 0.330659,2.17579 0.330659,3.76376 0,1.58797 -0.07361,2.425921 -0.330659,3.763761 -1.463053,7.61483 -7.201832,13.703434 -14.730125,15.628043 -1.899275,0.48555 -3.793659,0.677057 -5.867201,0.593128 z m -1.009705,-9.707669 c 2.545309,-0.250161 4.982396,-1.227264 6.931485,-2.779046 3.144595,-2.503597 5.157679,-6.642448 5.157679,-10.60406 v -0.781997 l 0.395695,-0.318148 c 0.217632,-0.174982 0.580903,-0.502985 0.80727,-0.728895 0.406929,-0.406112 1.198494,-1.383936 1.198494,-1.480508 0,-0.02745 -0.0921,-0.01027 -0.20467,0.03819 -0.638969,0.275082 -2.016491,0.655388 -2.224237,0.614067 -0.06883,-0.0137 -0.004,-0.08929 0.235698,-0.275224 0.570872,-0.442662 1.121195,-1.187545 1.435106,-1.942462 0.06534,-0.157111 0.10557,-0.298856 0.08944,-0.314987 -0.01621,-0.01614 -0.298448,0.105554 -0.627351,0.27041 -0.643988,0.322785 -1.458699,0.624788 -2.042442,0.757103 l -0.363925,0.08249 -0.180641,-0.186266 c -0.25552,-0.263475 -0.913758,-0.707524 -1.325165,-0.893958 -0.675286,-0.306013 -1.176938,-0.405304 -2.02348,-0.400504 -0.602931,0.0034 -0.856198,0.02926 -1.200729,0.122526 -0.913425,0.247255 -1.649977,0.695036 -2.323879,1.412785 -0.951289,1.013181 -1.420158,2.420611 -1.259316,3.78015 0.03308,0.279545 0.05021,0.518184 0.03808,0.530309 -0.04289,0.04286 -1.211964,-0.104457 -1.858161,-0.234162 -2.21328,-0.444234 -4.18291,-1.369393 -5.957422,-2.798271 -0.304775,-0.245411 -0.884211,-0.789965 -1.287637,-1.210119 l -0.7335,-0.763917 -0.166082,0.34077 c -0.238602,0.489569 -0.378094,0.980952 -0.450486,1.586914 -0.1834446,1.535528 0.472842,3.209238 1.638576,4.178816 l 0.330912,0.275229 h -0.185128 c -0.33929,0 -1.036356,-0.207677 -1.780288,-0.530402 -0.06423,-0.02786 -0.07123,0.05068 -0.04282,0.48037 0.04328,0.65458 0.148847,1.046205 0.447266,1.659176 0.58717,1.206085 1.631697,2.114073 2.891925,2.513902 l 0.381491,0.121028 -0.272334,0.0462 c -0.149784,0.02543 -0.610039,0.04434 -1.02279,0.04202 -0.412751,-0.0023 -0.750456,0.01684 -0.750456,0.04255 0,0.02571 0.06381,0.199421 0.141808,0.386023 0.312338,0.74727 0.997116,1.583427 1.683014,2.055067 0.624963,0.429739 1.488764,0.745186 2.228257,0.813727 l 0.369023,0.03419 -0.450891,0.306427 c -0.972289,0.660772 -1.926073,1.090318 -3.070664,1.382903 -0.939977,0.24028 -1.68269,0.320831 -2.693564,0.292129 -0.4547167,-0.01286 -0.8266018,-0.0099 -0.8264124,0.0067 3.821e-4,0.03217 0.111136,0.09906 0.7780291,0.469818 2.4137513,1.341902 5.2029423,1.890116 8.1452303,1.60094 z"
     id="path841" />
  <path
     id="path830"
     d="M 15.1793,30.230516 C 13.699791,30.099635 11.974241,29.60493 10.542565,28.901191 l -1.1102041,-0.54572 1.3061221,-0.09027 c 0.718368,-0.04965 1.658776,-0.183596 2.089796,-0.297665 0.828086,-0.219154 2.657215,-1.075597 3.189671,-1.493483 l 0.316202,-0.248163 -0.577426,-0.0962 c -1.374056,-0.228931 -2.474707,-0.900455 -3.249665,-1.982672 -0.776257,-1.08403 -0.734044,-1.216934 0.386524,-1.216934 0.502857,0 0.914286,-0.04498 0.914286,-0.09995 0,-0.05498 -0.290456,-0.203116 -0.645458,-0.329201 -1.364668,-0.484687 -2.759292,-2.259052 -2.961861,-3.768344 l -0.08129,-0.605663 0.701446,0.242215 c 0.629795,0.217474 1.289202,0.323196 1.289202,0.206697 0,-0.02423 -0.235667,-0.291784 -0.523704,-0.594574 -1.086287,-1.141924 -1.581857,-2.708475 -1.303844,-4.121589 0.08521,-0.43311 0.235763,-0.943796 0.334565,-1.134856 l 0.179638,-0.347383 0.890214,0.874462 c 1.175286,1.154493 2.321348,1.958493 3.826339,2.684307 1.301421,0.627637 3.251375,1.188189 4.403434,1.265853 l 0.688274,0.0464 0.03805,-1.129106 c 0.03244,-0.962704 0.100021,-1.254994 0.458576,-1.983323 0.473336,-0.961481 1.354805,-1.838326 2.335151,-2.322898 0.529541,-0.261746 0.822636,-0.308828 1.930454,-0.310106 1.183268,-0.0014 1.376279,0.03404 2.051991,0.376428 0.410227,0.207865 0.875983,0.516436 1.035012,0.685715 0.377844,0.402197 0.603844,0.385658 2.003096,-0.146591 0.644452,-0.245137 1.199729,-0.417705 1.23395,-0.383485 0.112627,0.112626 -0.405875,0.892187 -1.011354,1.52056 -0.327198,0.339569 -0.554722,0.657582 -0.505608,0.706695 0.04911,0.04911 0.545161,-0.03251 1.102329,-0.181374 0.557169,-0.14887 1.036403,-0.247594 1.064967,-0.219387 0.02856,0.02821 -0.447313,0.55053 -1.057504,1.160721 l -1.109437,1.109437 -0.08223,1.34203 c -0.182769,2.983029 -1.386766,5.955894 -3.347073,8.264479 -2.749855,3.23841 -7.014662,4.894889 -11.565898,4.492271 z"
     style="fill:#ffffff;fill-rule:evenodd;stroke-width:1.51181;stroke-linecap:round;stroke-linejoin:round" />
</svg>
